# xmcd CD database file
#
# Track frame offsets:
#	182
#	37370
#	63955
#	97342
#	114387
#	135907
#	167037
#
# Disc length: 2637 seconds
#
# Revision: 2
# Processed by: cddbd v1.4PL0 Copyright (c) Steve Scherf et al.
# Submitted via: CDex 1.50beta10
#
DISCID=5f0a4b07
DTITLE=Lee Oskar - Before the Rain
DYEAR=1900
DGENRE=
TTITLE0=Before the Rain
TTITLE1=Steppin'
TTITLE2=San Francisco Bay
TTITLE3=Feelin' Happy
TTITLE4=More than Words Can Say
TTITLE5=Sing Song
TTITLE6=Haunted House
EXTD=Harmonica Player with Eric Burdon and WAR
EXTT0=
EXTT1=
EXTT2=
EXTT3=
EXTT4=
EXTT5=
EXTT6=
PLAYORDER=
